<?xml version="1.0" encoding="utf-8"?>
<!-- Generator: Adobe Illustrator 16.0.0, SVG Export Plug-In . SVG Version: 6.00 Build 0)  -->
<!DOCTYPE svg PUBLIC "-//W3C//DTD SVG 1.1//EN" "http://www.w3.org/Graphics/SVG/1.1/DTD/svg11.dtd">
<svg version="1.1" id="Layer_1" xmlns="http://www.w3.org/2000/svg" xmlns:xlink="http://www.w3.org/1999/xlink" x="0px" y="0px"
	 width="403.667px" height="469.291px" viewBox="0 0 403.667 469.291" enable-background="new 0 0 403.667 469.291"
	 xml:space="preserve">
<g>
	<path d="M177.901,409.854l2.037-4.584c-0.198,0.01-0.399,0.014-0.6,0.014c-3.079,0-5.976-1.197-8.156-3.373
		c-2.188-2.189-3.388-5.088-3.388-8.17c0-3.088,1.203-5.988,3.388-8.168l9.458-9.457c-1.134-0.625-2.151-1.436-3.012-2.391
		l-1.805,4.689l-51.202,19.705l19.704-51.201l4.689-1.807c-1.61-1.449-2.811-3.348-3.406-5.494l-14.39,10.475l1.875-17.707
		c-0.942,0.244-1.916,0.371-2.896,0.371c-1.229,0-2.432-0.197-3.571-0.57l0.782,4.967l-34.492,42.66l-8.536-54.195l3.154-3.902
		c-1.266-0.271-2.473-0.754-3.571-1.418l-3.464,12.928c-1.35,5.039-5.936,8.561-11.152,8.561c-1.002,0-2.003-0.133-2.975-0.391
		c-3.291-0.889-5.866-3.109-7.302-5.924l-2.959,4.066l-54.557,5.779l32.286-44.355l4.995-0.527c-1.718-2.65-2.354-5.988-1.475-9.271
		c1.354-5.043,5.939-8.563,11.151-8.563c1.005,0,2.009,0.133,2.983,0.393l12.937,3.469c-0.024-1.295,0.17-2.582,0.567-3.807
		l-4.969,0.783l-42.664-34.486l54.193-8.541l3.902,3.154c0.042-0.195,0.089-0.393,0.142-0.588c0.525-1.957,1.532-3.703,2.918-5.105
		l-16.262-7.223l16.265-7.227c-1.563-1.588-2.606-3.578-3.058-5.7l-3.907,3.158l-54.193-8.538l42.664-34.488l4.965,0.782
		c-0.397-1.223-0.592-2.511-0.567-3.805l-12.927,3.463c-0.975,0.262-1.983,0.395-2.992,0.395c-5.214,0-9.798-3.519-11.147-8.556
		c-0.878-3.284-0.243-6.623,1.476-9.271l-4.997-0.53L1.558,115.974l54.556,5.777l2.959,4.066c1.435-2.814,4.008-5.033,7.289-5.914
		c0.977-0.262,1.985-0.396,2.995-0.396c5.212,0,9.795,3.519,11.145,8.557l3.464,12.928c1.098-0.664,2.305-1.146,3.572-1.418
		l-3.155-3.903l8.537-54.194l34.492,42.665l-0.781,4.961c1.138-0.372,2.34-0.569,3.568-0.569c0.979,0,1.954,0.126,2.897,0.371
		l-1.875-17.7l14.389,10.472c0.595-2.148,1.795-4.046,3.407-5.498l-4.688-1.804l-19.705-51.203l51.202,19.705l1.805,4.689
		c0.859-0.955,1.877-1.766,3.01-2.392l-9.461-9.46c-2.184-2.185-3.385-5.088-3.382-8.175c0.003-3.083,1.207-5.98,3.391-8.157
		c2.164-2.169,5.064-3.373,8.152-3.373l0,0c0.201,0,0.402,0.005,0.602,0.015l-2.037-4.587l22.273-50.136l22.273,50.136l-2.037,4.587
		c0.199-0.01,0.4-0.015,0.602-0.015c3.081,0,5.979,1.2,8.16,3.38c2.179,2.174,3.382,5.071,3.385,8.155
		c0.002,3.085-1.199,5.987-3.382,8.17l-9.463,9.461c1.134,0.627,2.151,1.438,3.013,2.395l1.805-4.691l51.203-19.705l-19.707,51.204
		l-4.688,1.803c1.611,1.452,2.812,3.351,3.406,5.499l14.39-10.473l-1.875,17.7c0.943-0.245,1.917-0.371,2.896-0.371
		c1.229,0,2.43,0.197,3.566,0.568l-0.781-4.96l34.49-42.664l8.54,54.193l-3.155,3.903c1.266,0.271,2.473,0.753,3.57,1.417
		l3.463-12.927c1.346-5.036,5.929-8.557,11.145-8.557c1.009,0,2.018,0.133,2.996,0.396c2.98,0.799,5.472,2.712,7.012,5.387
		c0.1,0.172,0.193,0.345,0.283,0.521l2.956-4.061l54.556-5.777l-32.285,44.355l-5,0.53c1.718,2.647,2.354,5.982,1.48,9.263
		c-1.348,5.045-5.933,8.566-11.149,8.566c-1.01,0-2.018-0.133-2.995-0.396l-12.925-3.462c0.024,1.295-0.17,2.583-0.567,3.806
		l4.969-0.782l42.661,34.489l-54.192,8.538l-3.908-3.16c-0.451,2.121-1.495,4.111-3.058,5.699l16.271,7.229l-16.265,7.223
		c1.382,1.4,2.389,3.146,2.915,5.105c0.053,0.195,0.1,0.393,0.142,0.59l3.902-3.156l54.192,8.541l-42.661,34.486l-4.97-0.783
		c0.397,1.223,0.593,2.51,0.569,3.803l12.928-3.463c0.979-0.262,1.982-0.395,2.987-0.395c5.22,0,9.806,3.523,11.152,8.566
		c0.874,3.283,0.238,6.619-1.479,9.266l4.999,0.531l32.286,44.354l-54.557-5.779l-2.955-4.059c-0.092,0.178-0.188,0.355-0.289,0.531
		c-1.543,2.672-4.035,4.582-7.017,5.377c-0.968,0.262-1.978,0.395-2.987,0.395c-5.216,0-9.799-3.521-11.145-8.563l-3.462-12.922
		c-1.098,0.664-2.304,1.146-3.569,1.418l3.154,3.902l-8.54,54.195l-34.49-42.66l0.782-4.965c-1.138,0.371-2.341,0.568-3.567,0.568
		c-0.98,0-1.953-0.127-2.896-0.371l1.875,17.707l-14.391-10.475c-0.595,2.146-1.795,4.043-3.406,5.496l4.689,1.805l19.707,51.201
		l-51.203-19.705l-1.803-4.688c-0.135,0.15-0.273,0.297-0.417,0.439c-0.78,0.779-1.653,1.436-2.593,1.955l9.457,9.457
		c2.18,2.174,3.383,5.074,3.383,8.162c0,3.082-1.201,5.98-3.379,8.162c-2.193,2.186-5.089,3.381-8.166,3.381
		c-0.201,0-0.401-0.004-0.601-0.014l2.036,4.584l-22.271,50.135L177.901,409.854z M234.656,324.992l-9.877-7.189l-0.529-4.992
		c-1.824,1.186-3.989,1.861-6.277,1.861c-1.014,0-2.025-0.133-3.008-0.398c-1.164-0.311-2.256-0.793-3.245-1.428v4.934l7.213,7.213
		H234.656z M181.421,324.992l7.213-7.213v-4.936c-0.995,0.637-2.095,1.123-3.271,1.436c-0.957,0.26-1.969,0.393-2.982,0.393
		c-2.287,0-4.452-0.676-6.276-1.863l-0.529,4.994l-9.876,7.189H181.421z M135.711,307.688l1.288-12.158l4.058-2.953
		c-2.842-1.453-5.042-4.061-5.909-7.295c-0.316-1.186-0.436-2.377-0.379-3.543l-4.285,2.475l-2.64,9.852L135.711,307.688z
		 M263.357,295.529l1.287,12.152l7.86-13.617l-2.64-9.855l-4.281-2.471c0.059,1.16-0.061,2.35-0.375,3.531
		c-0.867,3.24-3.066,5.852-5.91,7.307L263.357,295.529z M188.634,281.836v-8.111l-1.484,2.57L188.634,281.836z M211.72,281.83
		l1.482-5.535l-1.482-2.568V281.83z M238.732,266.234l-7.014-4.049l1.481,2.564L238.732,266.234z M161.626,266.234l5.531-1.484
		l1.481-2.564L161.626,266.234z M281.41,264.217l9.85-2.641l7.861-13.617l-11.166,4.957l-4.582-2.035
		c0.01,0.203,0.016,0.406,0.016,0.611c-0.002,3.084-1.207,5.982-3.391,8.16c-0.854,0.854-1.818,1.557-2.863,2.096L281.41,264.217z
		 M118.945,264.217l4.275-2.469c-1.047-0.541-2.016-1.248-2.874-2.107c-2.176-2.172-3.379-5.07-3.379-8.158
		c0-0.201,0.005-0.402,0.016-0.602l-4.586,2.035l-11.167-4.959l7.862,13.619L118.945,264.217z M250.281,246.246l-4.059-4.059h-2.971
		L250.281,246.246z M150.083,246.238l7.007-4.047h-2.96L150.083,246.238z M246.222,219.105l4.052-4.053l-7.018,4.053H246.222z
		 M157.095,219.102l-7.016-4.051l4.051,4.051H157.095z M101.229,213.336l11.168-4.962l4.592,2.04
		c-0.164-3.154,0.956-6.364,3.36-8.769c0.857-0.856,1.824-1.561,2.869-2.102l-4.275-2.468l-9.851,2.639L101.229,213.336z
		 M299.123,213.334l-7.863-13.62l-9.85-2.64l-4.275,2.469c1.046,0.541,2.014,1.246,2.87,2.102c2.175,2.168,3.38,5.064,3.384,8.147
		c0,0.206-0.006,0.412-0.016,0.617l4.582-2.036L299.123,213.334z M168.644,199.113l-1.486-2.575l-5.548-1.486L168.644,199.113z
		 M231.719,199.105l7.01-4.048l-5.528,1.481L231.719,199.105z M211.718,187.568l1.484-2.571l-1.484-5.542V187.568z M188.632,187.564
		v-8.1l-1.482,5.533L188.632,187.564z M134.768,179.556c-0.057-1.163,0.062-2.354,0.378-3.538c0.868-3.239,3.068-5.849,5.912-7.302
		L137,165.761l-1.288-12.154l-7.867,13.623l2.64,9.853L134.768,179.556z M259.298,168.716c2.845,1.454,5.044,4.064,5.909,7.301
		c0.314,1.183,0.434,2.373,0.377,3.535l4.281-2.472l2.64-9.85l-7.86-13.616l-1.287,12.147L259.298,168.716z M175.576,143.49
		l0.529,4.993c1.825-1.186,3.991-1.864,6.28-1.864c1.01,0,2.018,0.133,2.996,0.396c1.168,0.312,2.261,0.796,3.251,1.431v-4.937
		l-7.211-7.212h-15.727L175.576,143.49z M217.973,146.619c2.287,0,4.453,0.677,6.277,1.863l0.529-4.993l9.882-7.191h-15.729
		l-7.214,7.213v4.94c0.994-0.638,2.092-1.124,3.267-1.438C215.949,146.752,216.96,146.619,217.973,146.619z"/>
</g>
<path fill="#FFFFFF" d="M348.182,332.715l35.256,3.734l-20.865-28.664l-24.619-2.611l-3.326-1.92l18.34-4.912
	c2.313-0.619,3.688-3,3.068-5.318c-0.617-2.318-3.002-3.693-5.32-3.074l-26.729,7.16l-32.957-19.027l7.225-1.936l23.961,13.836
	c2.078,1.203,4.732,0.492,5.934-1.582c1.201-2.082,0.488-4.734-1.59-5.938l-16.445-9.49l3.717-0.994l24.455,3.85l27.57-22.287
	l-35.023-5.52l-19.25,15.564l-3.713,0.994l9.492-16.443c1.199-2.074,0.488-4.729-1.588-5.924c-2.076-1.203-4.734-0.492-5.934,1.582
	l-13.834,23.965l-15.611,4.184l-64.008-36.951l32.818-0.006l19.564,19.566c1.699,1.699,4.445,1.699,6.145,0
	c1.699-1.693,1.697-4.445,0-6.139l-13.42-13.428h3.838l22.625,10.053l32.404-14.393l-32.404-14.394l-22.625,10.051h-3.838
	l13.42-13.426c1.697-1.695,1.699-4.445,0-6.139c-1.699-1.698-4.445-1.698-6.145-0.002l-19.564,19.566h-32.818l64.008-36.956
	l15.611,4.184l13.834,23.961c1.199,2.077,3.852,2.789,5.934,1.589c2.076-1.198,2.787-3.854,1.588-5.931l-9.492-16.439l3.713,0.994
	l19.25,15.564l35.023-5.518l-27.57-22.289l-24.455,3.851l-3.717-0.994l16.445-9.494c2.078-1.199,2.785-3.856,1.59-5.933
	c-1.201-2.077-3.855-2.789-5.934-1.588l-23.961,13.834l-7.225-1.935l32.957-19.027l26.729,7.161c2.318,0.622,4.703-0.754,5.32-3.072
	c0.619-2.315-0.756-4.696-3.068-5.316l-18.344-4.916l3.33-1.92l24.619-2.608l20.865-28.666l-35.256,3.734l-14.572,20.016
	l-3.328,1.922l4.912-18.338c0.625-2.315-0.752-4.695-3.068-5.316c-2.318-0.623-4.699,0.753-5.318,3.071l-7.162,26.725
	l-32.957,19.029l1.938-7.222l23.963-13.833c2.074-1.201,2.789-3.857,1.59-5.936c-1.203-2.077-3.855-2.789-5.936-1.588l-16.439,9.492
	l0.994-3.709l15.566-19.253l-5.52-35.025l-22.291,27.573l3.852,24.457l-0.994,3.711l-9.49-16.441
	c-1.195-2.079-3.855-2.789-5.93-1.591c-2.082,1.201-2.793,3.856-1.592,5.935l13.834,23.961l-4.186,15.611l-64.002,36.954
	l16.41-28.421l26.727-7.162c2.313-0.621,3.688-3.001,3.068-5.319c-0.617-2.318-3-3.693-5.316-3.07l-18.34,4.911l1.922-3.323
	l20.018-14.571l3.734-35.257l-28.666,20.864l-2.609,24.621l-1.918,3.325l-4.914-18.338c-0.617-2.315-3.002-3.692-5.316-3.068
	c-2.32,0.62-3.693,3.001-3.076,5.318l7.162,26.728l-16.412,28.426v-73.912l11.434-11.43h27.67c2.396,0,4.342-1.943,4.342-4.342
	c0-2.397-1.945-4.343-4.342-4.343h-18.986l2.717-2.715l23.105-8.891l12.736-33.091l-33.092,12.734l-8.895,23.107l-2.717,2.715
	V95.286c0-2.397-1.941-4.342-4.34-4.342s-4.344,1.945-4.344,4.342v27.671l-5.289,5.287V90.188l19.568-19.563
	c1.695-1.698,1.695-4.448,0-6.141c-1.699-1.698-4.445-1.698-6.143,0l-13.426,13.422v-3.841l10.055-22.627l-14.396-32.402
	l-14.395,32.402l10.051,22.624v3.844L182.41,64.483c-1.697-1.698-4.447-1.698-6.142,0c-1.698,1.693-1.696,4.443,0,6.141
	l19.564,19.563v38.057l-5.285-5.287V95.286c0-2.397-1.943-4.342-4.344-4.342c-2.398,0-4.34,1.945-4.34,4.342v18.986l-2.719-2.715
	l-8.892-23.107l-33.089-12.734l12.733,33.091l23.106,8.891l2.715,2.715h-18.984c-2.398,0-4.342,1.946-4.342,4.343
	c0,2.399,1.943,4.342,4.343,4.342h27.669l11.428,11.43v73.906l-16.408-28.42l7.162-26.728c0.619-2.316-0.754-4.698-3.072-5.318
	c-2.316-0.623-4.697,0.753-5.318,3.068l-4.913,18.338l-1.922-3.327l-2.608-24.62l-28.665-20.864l3.734,35.257l20.017,14.571
	l1.922,3.323l-18.339-4.911c-2.314-0.623-4.697,0.752-5.318,3.07c-0.62,2.318,0.756,4.698,3.072,5.319l26.727,7.162l16.413,28.425
	l-64.012-36.955l-4.184-15.614l13.837-23.962c1.198-2.077,0.488-4.732-1.591-5.933c-2.078-1.198-4.731-0.488-5.932,1.591
	l-9.492,16.441l-0.994-3.711l3.854-24.457L97.509,98.609l-5.517,35.025l15.564,19.253l0.994,3.709l-16.439-9.492
	c-2.077-1.201-4.734-0.488-5.935,1.591c-1.2,2.076-0.484,4.732,1.592,5.933l23.96,13.833l1.937,7.222l-32.957-19.026l-7.162-26.728
	c-0.621-2.318-3.002-3.693-5.319-3.071c-2.316,0.622-3.69,3.001-3.071,5.319l4.915,18.335l-3.329-1.919l-14.568-20.019
	l-35.258-3.734l20.864,28.667l24.62,2.608l3.326,1.919l-18.338,4.916c-2.314,0.62-3.69,3.001-3.07,5.319
	c0.62,2.314,3.002,3.69,5.32,3.069l26.728-7.161l32.957,19.027l-7.223,1.938l-23.964-13.837c-2.077-1.201-4.731-0.488-5.932,1.591
	c-1.199,2.077-0.487,4.731,1.589,5.932l16.441,9.492l-3.708,0.994l-24.458-3.851l-27.572,22.289l35.023,5.518l19.252-15.564
	l3.71-0.994l-9.492,16.439c-1.199,2.076-0.488,4.734,1.589,5.934c2.077,1.197,4.732,0.485,5.934-1.592l13.834-23.961l15.612-4.182
	l64.009,36.951h-32.821l-19.566-19.563c-1.695-1.696-4.445-1.696-6.141,0c-1.698,1.697-1.698,4.445,0,6.141l13.424,13.423h-3.842
	l-22.625-10.048l-32.401,14.394l32.401,14.393l22.625-10.047h3.844l-13.425,13.422c-1.698,1.693-1.698,4.445,0,6.139
	c1.696,1.699,4.446,1.699,6.141,0l19.566-19.561l32.821-0.006l-64.006,36.957l-15.615-4.184l-13.834-23.965
	c-1.201-2.074-3.857-2.785-5.934-1.582c-2.078,1.195-2.789,3.85-1.589,5.924l9.492,16.443l-3.71-0.994l-19.252-15.564l-35.023,5.52
	l27.572,22.287l24.455-3.85l3.712,0.994l-16.442,9.49c-2.076,1.203-2.789,3.855-1.589,5.938c1.201,2.074,3.855,2.785,5.932,1.582
	l23.965-13.836l7.222,1.941l-32.957,19.027l-26.728-7.166c-2.318-0.619-4.698,0.756-5.32,3.074c-0.62,2.318,0.756,4.699,3.07,5.318
	l18.338,4.912L62.4,305.18l-24.62,2.605l-20.864,28.664l35.258-3.734l14.568-20.016l3.329-1.92l-4.915,18.34
	c-0.62,2.313,0.754,4.693,3.071,5.318c2.316,0.617,4.698-0.758,5.319-3.076l7.162-26.727l32.957-19.027l-1.937,7.225l-23.96,13.832
	c-2.077,1.203-2.792,3.855-1.591,5.936c1.199,2.076,3.856,2.787,5.933,1.59l16.439-9.496l-0.994,3.711l-15.564,19.252l5.517,35.027
	l22.292-27.57l-3.854-24.461l0.994-3.711l9.492,16.443c1.201,2.076,3.855,2.787,5.932,1.59c2.079-1.195,2.789-3.855,1.591-5.93
	l-13.837-23.963l4.184-15.613l64.012-36.955l-16.413,28.42l-26.727,7.166c-2.316,0.619-3.692,3-3.072,5.318
	c0.621,2.316,3.004,3.693,5.318,3.068l18.339-4.912l-1.922,3.322l-20.017,14.572l-3.734,35.264l28.665-20.867l2.608-24.621
	l1.922-3.33l4.913,18.34c0.621,2.318,3.002,3.693,5.318,3.068c2.318-0.617,3.691-2.998,3.072-5.316l-7.162-26.727l16.41-28.426
	v73.908l-11.43,11.432h-27.669c-2.399,0-4.343,1.943-4.343,4.342s1.943,4.346,4.342,4.346h18.984l-2.715,2.711l-23.106,8.896
	l-12.733,33.09l33.089-12.734l8.892-23.107l2.719-2.717v18.988c0,2.393,1.941,4.34,4.34,4.34c2.4,0,4.344-1.947,4.344-4.34v-27.67
	l5.287-5.295v38.063l-19.566,19.564c-1.696,1.693-1.696,4.445,0,6.145c1.699,1.693,4.445,1.693,6.142,0l13.424-13.428v3.844
	l-10.053,22.623l14.396,32.402l14.395-32.402L204.52,387.23v-3.844l13.424,13.428c1.697,1.693,4.443,1.693,6.143,0
	c1.695-1.699,1.695-4.451,0-6.145l-19.566-19.564v-38.063l5.287,5.295v27.67c0,2.393,1.945,4.34,4.344,4.34s4.344-1.947,4.34-4.34
	V347.02l2.717,2.717l8.895,23.107l33.092,12.734l-12.736-33.09l-23.105-8.896l-2.717-2.711h18.986c2.393,0,4.342-1.947,4.342-4.346
	s-1.945-4.342-4.342-4.342h-27.67l-11.432-11.432v-73.908l16.41,28.426l-7.162,26.727c-0.617,2.318,0.756,4.699,3.072,5.316
	c2.318,0.625,4.703-0.75,5.32-3.068l4.914-18.334l1.918,3.324l2.609,24.621l28.666,20.867l-3.734-35.264l-20.018-14.572
	l-1.922-3.322l18.34,4.912c2.316,0.625,4.699-0.752,5.316-3.068c0.619-2.318-0.756-4.699-3.068-5.318l-26.727-7.166l-16.41-28.42
	l64.002,36.951l4.186,15.617l-13.834,23.963c-1.201,2.074-0.49,4.734,1.592,5.93c2.074,1.197,4.734,0.486,5.93-1.59l9.49-16.443
	l0.994,3.711l-3.852,24.461l22.291,27.57l5.52-35.027l-15.566-19.252l-0.994-3.711l16.439,9.496c2.08,1.197,4.732,0.486,5.936-1.59
	c1.199-2.08,0.484-4.732-1.59-5.936l-23.963-13.832l-1.938-7.225l32.957,19.027l7.162,26.727c0.619,2.318,3,3.693,5.318,3.07
	c2.316-0.619,3.693-3,3.07-5.313l-4.91-18.34l3.324,1.92L348.182,332.715z"/>
</svg>
